<?xml version="1.0" encoding="UTF-8"?><svg id="_レイヤー_2" data-name="レイヤー 2" xmlns="http://www.w3.org/2000/svg" viewBox="0 0 193.91 36.06"><defs><style>.cls-1 {
        fill: #231815;
      }

      .cls-1, .cls-2, .cls-3 {
        stroke-width: 0px;
      }

      .cls-2 {
        fill: #fff;
      }

      .cls-3 {
        fill: #006c60;
      }</style></defs><g id="_レイヤー_1-2" data-name="レイヤー 1"><g><path class="cls-1" d="m176.08,5.18c0-.24-.16-.42-.35-.42h-8.79c-.19,0-.35.18-.35.42v7.22h9.48v-7.22Zm-7.5,3.01h5.53v.78h-5.53v-.78Zm5.53-1.26h-5.52v-.78h5.52v.78Zm-5.53,3.29h5.53v.78h-5.53v-.78Zm-1.66-6.09h8.79V.83c0-.24-.15-.43-.35-.43h-8.09c-.19,0-.35.18-.35.43v3.29Zm6.84-1.37h-4.89v-.99h4.89v.99Zm-3.99,9.74c.21-.08.32.01.32.21v1.34c-1.49.52-2.8.85-4.19,1.08v-1.57c1.24-.23,2.59-.59,3.86-1.06m2.96,0c1.27.47,2.62.82,3.87,1.06v1.57c-1.38-.23-2.7-.55-4.19-1.08v-1.34c0-.19.11-.28.32-.21m-6.58-4.12c-.41.18-.86.36-1.33.54v4.64c0,1.08-.52,1.56-1.54,1.56h-1.73l-.15-1.65h1.14c.25,0,.39-.19.39-.43v-3.48c-.46.13-.91.26-1.32.36-.21.05-.31-.07-.31-.28v-1.43c.56-.12,1.11-.26,1.64-.4v-3.07h-1.64v-1.21c0-.24.16-.43.35-.43h1.29V0h1.89v3.1h.99c.19,0,.35.18.35.43v1.21h-1.33v2.5c.47-.15.92-.31,1.33-.47v1.61m-15.12-4.03c.19,0,.35.19.35.43v1.2h-2.47v.41c.84.98,1.77,1.96,2.47,2.59v2.08c-.77-.6-1.75-1.5-2.47-2.28v6.34h-2.03v-5.98c-.94,1.5-2,2.66-3.25,3.65v-2.06c1.07-1.14,2.01-2.67,2.86-4.74h-2.86v-1.2c0-.24.16-.43.35-.43h2.9v-1.87c-.97.11-1.94.19-2.88.23v-1.57c2.41-.19,4.87-.58,6.92-1.12.24-.07.4.07.4.33v1.34c-.77.19-1.58.36-2.42.5v2.16h2.12m7.68-2.92c0-.24-.16-.42-.35-.42h-6.07c-.19,0-.35.18-.35.42v13.12h6.77V1.43Zm-4.66,1.2h2.55v10.29h-2.55V2.63Zm-13.25-2.22c.19,0,.35.18.35.42v12.65c0,1.08-.49,1.56-1.51,1.56h-2.5l-.14-1.66h1.65c.25,0,.4-.19.4-.43V2.04h-10.2v13.08h-2.12V.83c0-.24.16-.42.35-.42h13.74m-2.65,4.6h-8.48v-1.13c0-.24.15-.43.35-.43h7.79c.19,0,.35.19.35.43v1.13Zm-.34,1.79c0-.24-.15-.42-.35-.42h-7.1c-.19,0-.35.18-.35.42v5.39h7.8v-5.39Zm-5.73,1.14h3.66v2.68h-3.66v-2.68Zm61.83-.3c0-.24-.16-.42-.35-.42h-4.33v-1.2h3.75V.83c0-.24-.15-.42-.35-.42h-8.73c-.19,0-.35.18-.35.42v5.18h3.69v1.2h-4.07c-.19,0-.35.18-.35.42v1.21h2.87c-.78,1.89-1.69,3.19-2.87,4.28v1.99c1.88-1.3,3.46-3.26,4.42-5.51v5.51h1.99v-5.58c1.05,2.32,2.77,4.35,4.68,5.58v-1.99c-1.24-1.06-2.32-2.4-3.15-4.28h3.15v-1.21Zm-8.42-5.68h5.55v2.48h-5.55V1.96Zm-2.54-1.42c-.18,1.32-.53,2.57-.97,3.72v10.86h-1.84v-7.42c-.52.72-1.07,1.34-1.62,1.82v-2.43c1.13-1.78,2.07-4.18,2.57-7.08h1.46c.31,0,.44.27.41.54M49.21,1.37h2.28c-.18,2.03-.34,4.14-.34,6.04,0,3.52.27,4.54,1.15,4.54.99,0,2.11-.36,3.38-.95v2.18c-1.18.57-2.39.95-3.97.95-2.23,0-2.83-1.8-2.83-6.74,0-1.93.16-4.01.33-6.01m8.39,1.17h2.24c1.72,2.88,2.43,5.68,2.39,9.88,0,.4-.22.58-.55.58h-1.78c.11-4.48-.65-7-2.3-10.45M16.8,1.37h2.28c-.18,2.03-.35,4.14-.35,6.04,0,3.52.27,4.54,1.15,4.54.99,0,2.11-.36,3.38-.95v2.18c-1.18.57-2.38.95-3.96.95-2.23,0-2.83-1.8-2.83-6.74,0-1.93.15-4.01.33-6.01m8.39,1.17h2.24c1.72,2.88,2.43,5.68,2.39,9.88,0,.4-.22.58-.55.58h-1.78c.12-4.48-.65-7-2.3-10.45m56.3,6.28c-.29-1.52-.7-3.33-1.04-4.79h1.88c.31,1.12.77,2.87,1.1,4.27.08.36-.03.52-.3.52h-1.64Zm3.61,0c-.22-1.52-.51-3.39-.75-4.79h1.88c.25,1.2.59,2.89.84,4.27.06.36-.06.52-.33.52h-1.64Zm-2.58,3.85c5.36-.92,6.59-2.36,6.81-8.64h2.02c-.22,7.67-2.47,9.41-8.82,10.35v-1.7ZM124.23,2.9c-1.66.97-3.43,1.84-5.21,2.59v9.4h-2.39V6.43c-2.25.81-4.49,1.43-6.55,1.8v-2c4.29-.97,9.19-2.91,13.49-5.53.34-.21.66,0,.66.33v1.87Zm-59.51,11.02v-1.53c0-.32.21-.54.53-.54h13.28c.32,0,.53.22.53.54v1.53h-14.34Zm1.51-9.78v-1.5c0-.32.22-.53.53-.54h10.34c.32,0,.53.22.53.54v1.5h-11.4Zm35.87,3.87c2.11-.43,3.11-1.1,3.57-3l-7.07.28v5.46c0,1.02.66,1.68,1.67,1.68h7.24v2h-7.38c-2.5,0-3.77-1.18-3.77-3.52v-5.53l-2.95.11v-1.48c0-.31.22-.54.53-.55l2.41-.1V.51h2.24v2.76l8.91-.35c.31,0,.55.2.53.52-.15,4.54-2.2,6.01-5.94,6.59v-2.01m-61.87-1.88c-.57,0-1.13.03-1.66.09v-1.85h3.11v-1.28c0-.32-.22-.53-.53-.53h-2.57V.26h-2.14v2.3h-2.95c-.32,0-.53.22-.53.53v1.28h3.48v2.28c-2.48.76-4.07,2.31-4.07,4.41s1.55,3.51,4.14,3.51c1.47,0,2.07-.86,2.07-2.19v-4.27c.46-.05.96-.08,1.5-.08,2.5,0,3.61,1,3.61,2.3,0,1.94-1.22,2.55-3.56,2.27v1.85c3.18.36,5.7-.67,5.7-4.18,0-2.29-1.83-4.14-5.59-4.14m-3.8,5.82c0,.42-.14.64-.59.64-.84,0-1.45-.6-1.45-1.46,0-1.06.67-1.97,2.03-2.52v3.34Zm9.25-8.95c.24.13.41.45.41.77v1.65c-1.37-.74-2.51-1.29-3.68-1.78v-1.91c1.19.35,2.25.75,3.27,1.27M7.75,5.19c-.5,0-.98.03-1.42.08,0-.42.01-.84.03-1.26h6.84v-1.28c0-.32-.21-.53-.53-.54h-6.22c.04-.68.09-1.36.15-2h-2.09c-.06.63-.11,1.31-.15,2H.7c-.31,0-.53.22-.53.54v1.28h4.13c0,.55,0,1.11,0,1.67C1.26,6.62,0,8.77,0,10.51c0,2.49,1.03,3.66,2.85,3.66,2.13,0,5.09-2.33,7.81-6.49.72.48,1.08,1.21,1.08,2.17,0,2.28-1.48,3.07-3.84,3.08v1.76c3.28.04,5.96-1.11,5.96-4.87,0-3-2.31-4.63-6.1-4.63M1.97,10.67c0-1.3.77-2.47,2.38-3.12.07,1.46.18,2.86.34,4.06-.63.41-1.2.64-1.67.64-.63,0-1.05-.5-1.05-1.58m4.51-.56c-.08-.92-.13-1.95-.14-3.04.41-.04.86-.07,1.34-.07.43,0,.82.02,1.18.07-.77,1.19-1.58,2.22-2.38,3.04"/><g><path class="cls-3" d="m93.54,25.63v2.71h2.19v.52h-2.19v2.7h2.92v.52h-3.54v-6.97h3.54v.52h-2.92Zm-44.35-.52h-.63v6.97h.63v-6.97Zm2.55,6.97v-6.17l.02-.02,2.88,6.19h.95v-6.97h-.63v6.1l-.02.02-2.87-6.12h-.96v6.97h.63Zm29.48,0v-6.17l.02-.02,2.88,6.19h.95v-6.97h-.63v6.1l-.02.02-2.87-6.12h-.96v6.97h.63Zm-20.02-5.2c0-1-.31-1.9-1.78-1.9-1.16,0-1.93.5-1.92,1.71,0,.7.07,1.11,1.44,1.94,1.02.62,1.65.89,1.65,1.83,0,.8-.4,1.24-1.22,1.24-1.26,0-1.33-.81-1.33-1.57h-.64c-.06,1.36.56,2.09,1.94,2.09,1.24,0,1.88-.61,1.88-1.85,0-1.35-.89-1.54-1.76-2.15-.8-.57-1.33-.6-1.33-1.63,0-.82.48-1.08,1.25-1.08.96,0,1.17.52,1.19,1.38h.64Zm52.75-1.9c2.12,0,2.14,1.74,2.14,3.62s-.02,3.63-2.14,3.63-2.14-1.74-2.14-3.63.02-3.62,2.14-3.62m0,6.73c1.49,0,1.51-1.25,1.51-3.1s-.02-3.1-1.51-3.1-1.51,1.24-1.51,3.1.02,3.1,1.51,3.1m-10.52-.2c-.34.12-.79.2-1.33.2-1.53,0-1.51-1.35-1.51-3.1s-.02-3.1,1.51-3.1c.99,0,1.39.48,1.39,1.4h.63c.03-1.35-.67-1.92-2.02-1.92-2.3,0-2.14,2.27-2.14,3.62s-.16,3.63,2.14,3.63c.67,0,1.33-.1,1.95-.29v-3.49h-2.06v.52h1.43v2.53Zm-36.76-6.39v3.49h0c0,1.86-.02,3.1-1.51,3.1s-1.51-1.25-1.51-3.1v-3.49h-.63v3.49h0c0,1.89.02,3.63,2.14,3.63s2.14-1.74,2.14-3.63v-3.49h-.63Zm54.91,0v3.49h0c0,1.86-.02,3.1-1.51,3.1s-1.51-1.25-1.51-3.1v-3.49h-.63v3.49h0c0,1.89.02,3.63,2.13,3.63s2.14-1.74,2.14-3.63v-3.49h-.62Zm6.59,2.18c0,.38-.1.97-.62,1.55-.51.57-1.13.63-1.78.63h-1.09v2.62h-.63v-6.98h1.72c.66,0,1.27.06,1.78.63.52.58.62,1.17.62,1.55Zm-.63,0c0-.36-.1-.79-.44-1.19-.29-.33-.62-.47-1.33-.47h-1.09v3.33h1.09c.72,0,1.05-.15,1.33-.48.35-.39.44-.83.44-1.19Zm-54.11,4.8h-.67l-.96-2.66c-.09-.26-.25-.44-.72-.45-.12,0-1.3,0-1.3,0v3.11h-.63v-6.98h1.84c1.38,0,2.24.74,2.24,1.93,0,.82-.4,1.42-1.11,1.72.12.13.2.28.27.46l1.03,2.86Zm-2.43-3.63c.6,0,1.62-.23,1.62-1.41s-1.02-1.41-1.62-1.41h-1.21v2.82h1.21Zm39.27,3.63h-.67l-.96-2.66c-.09-.26-.25-.44-.73-.45-.12,0-1.3,0-1.3,0v3.11h-.62v-6.98h1.84c1.38,0,2.24.74,2.24,1.93,0,.82-.4,1.42-1.1,1.72.11.13.2.28.27.46l1.03,2.86Zm-2.43-3.63c.6,0,1.61-.23,1.61-1.41s-1.02-1.41-1.61-1.41h-1.22v2.82h1.22Zm-17.43,1.85c-.13.88-.47,1.4-1.44,1.4-1.49,0-1.51-1.25-1.51-3.1s.02-3.1,1.51-3.1c.96,0,1.31.52,1.44,1.4h.62c-.15-1.11-.62-1.92-2.06-1.92-2.11,0-2.14,1.74-2.14,3.62s.02,3.63,2.14,3.63c1.44,0,1.92-.81,2.07-1.93h-.63Zm-13.13-5.19l1.9,6.97h-.65l-.51-1.88h-2.37l-.52,1.88h-.65l1.9-6.97h.89Zm.59,4.57l-1.04-3.83-1.04,3.83h2.08Z"/><g><rect class="cls-3" y="21.11" width="44.69" height="14.96"/><path class="cls-2" d="m8.13,30.69h-.02l-2.04-5.59h-2.46v.02c.61.24.97.72.97,1.51v5.44h.71v-6.1h.02l2.22,6.1h.82l2.2-6.16h.02v6.16h1.34v-6.97h-1.78l-1.99,5.59Zm6.79-4.24c0-.7.62-.97,1.17-.99.8-.02,1.63.32,2.16.6v-.85c-.24-.05-1.13-.27-2.01-.27-1.57,0-2.55.66-2.59,1.81-.08,2.34,3.74,2.18,3.74,3.75,0,.76-.55,1.17-1.44,1.17-.8,0-1.63-.36-2.2-.75v.95c.24.13,1.13.35,2.02.35,1.59,0,2.92-.51,2.89-2.06-.04-2.26-3.74-2.09-3.74-3.71m10.36,4.02c.15-.31.44-.9.75-1.71h-.73s-.27.65-.52,1.22c-.65-.66-1.27-1.3-1.7-1.75.69-.4,1.72-.85,1.72-1.89,0-.64-.56-1.38-1.83-1.35-.94.03-1.61.68-1.66,1.45-.04.61.25,1.02.61,1.4.06.07.18.18.33.34-1.05.6-1.67,1.3-1.69,2.17-.03,1.03.8,1.88,2.23,1.88.98,0,1.7-.44,2.2-1.21.58.61,1.02,1.06,1.02,1.06h.88c-.44-.42-1.02-1-1.61-1.6m-3.33-4.07c.03-.56.43-1,1.08-1,.64,0,1.13.41,1.13,1,0,.72-.51,1.06-1.38,1.5-.04-.05-.09-.1-.12-.14-.47-.5-.73-.82-.71-1.36m2.54,4.24c-.38.72-.74,1.17-1.64,1.17-1,0-1.64-.65-1.6-1.56.03-.84.71-1.33,1.34-1.73.53.56,1.28,1.33,1.94,2.02-.02.04-.03.07-.05.1m13.05-5.54h-2.99v.02c.6.24.96.72.96,1.51v5.45h2.03c2.19,0,3.79-.55,3.79-3.49s-1.61-3.49-3.79-3.49m.12,6.44h-.93v-5.91h.93c1.83,0,2.34,1.11,2.34,2.96,0,1.85-.52,2.96-2.34,2.96m-8.51-6.44v.02c.52.2.97.67.8,1.14-.16.43-2.37,5.82-2.37,5.82h.73l.84-2.12h2.99l.89,2.12h1.33l-3.01-6.98h-2.21Zm.23,4.3l1.23-3.1,1.31,3.1h-2.54Z"/></g></g></g></g></svg>